# xmcd
#
# Track frame offsets:
# 150
# 13295
# 27179
# 40574
# 54150
# 67025
# 81218
# 94650
# 108277
# 121839
# 135150
# 148770
# 163136
# 177205
# 185404
# 200562
# 213461
# 227555
# 240995
# 254311
# 267435
# 281492
# 294847
#
# Disc length: 4059 seconds
#
#
# Revision: 1
# Processed by: cddbd v1.5.2PL0 Copyright (c) Steve Scherf et al.
# Submitted via: FreeRIP 2.945 
#
DISCID=3d0fd917
DTITLE=Barr-Pigeon06 - Blind-Descent07
DYEAR=1998
DGENRE=Speech
TTITLE0=01
TTITLE1=02
TTITLE2=03
TTITLE3=04
TTITLE4=05
TTITLE5=06
TTITLE6=07
TTITLE7=08
TTITLE8=09
TTITLE9=10
TTITLE10=11
TTITLE11=12
TTITLE12=13
TTITLE13=14
TTITLE14=15
TTITLE15=16
TTITLE16=17
TTITLE17=18
TTITLE18=19
TTITLE19=20
TTITLE20=21
TTITLE21=22
TTITLE22=23
EXTD=Blind Descent by Nevada Barr\n1998 Read by Barbara Rosenblat\nRecorded Books 1998
EXTT0=
EXTT1=
EXTT2=
EXTT3=
EXTT4=
EXTT5=
EXTT6=
EXTT7=
EXTT8=
EXTT9=
EXTT10=
EXTT11=
EXTT12=
EXTT13=
EXTT14=
EXTT15=
EXTT16=
EXTT17=
EXTT18=
EXTT19=
EXTT20=
EXTT21=
EXTT22=
PLAYORDER=
